<svg xmlns="http://www.w3.org/2000/svg" xmlns:xlink="http://www.w3.org/1999/xlink">
  <defs>
    <symbol viewBox="0 0 24 24" id="attachOutlined">
      <path d="M12 22a5.86 5.86 0 0 1-6-5.7V6.13A4.24 4.24 0 0 1 10.33 2a4.24 4.24 0 0 1 4.34 4.13v10.18a2.67 2.67 0 0 1-5.33 0V6.92a1 1 0 0 1 1-1 1 1 0 0 1 1 1v9.39a.67.67 0 0 0 1.33 0V6.13A2.25 2.25 0 0 0 10.33 4 2.25 2.25 0 0 0 8 6.13V16.3a3.86 3.86 0 0 0 4 3.7 3.86 3.86 0 0 0 4-3.7V6.13a1 1 0 1 1 2 0V16.3a5.86 5.86 0 0 1-6 5.7z"/>
    </symbol>

    <symbol viewBox="0 0 24 24" id="kettleBell">
      <path d="M20.52 15.21l-1.8-1.81V8.94a6.86 6.86 0 0 0-5.82-6.88 6.74 6.74 0 0 0-7.62 6.67v4.67l-1.8 1.81A1.64 1.64 0 0 0 4.64 18H8v.34A3.84 3.84 0 0 0 12 22a3.84 3.84 0 0 0 4-3.66V18h3.36a1.64 1.64 0 0 0 1.16-2.79zM14 18.34A1.88 1.88 0 0 1 12 20a1.88 1.88 0 0 1-2-1.66V18h4z"/>
    </symbol>
    
    <symbol viewBox="0 0 24 24" id="kettleBellOutlined">
      <path d="M20.52 15.21l-1.8-1.81V8.94a6.86 6.86 0 0 0-5.82-6.88 6.74 6.74 0 0 0-7.62 6.67v4.67l-1.8 1.81A1.64 1.64 0 0 0 4.64 18H8v.34A3.84 3.84 0 0 0 12 22a3.84 3.84 0 0 0 4-3.66V18h3.36a1.64 1.64 0 0 0 1.16-2.79zM14 18.34A1.88 1.88 0 0 1 12 20a1.88 1.88 0 0 1-2-1.66V18h4zM5.51 16l1.18-1.18a2 2 0 0 0 .59-1.42V8.73A4.73 4.73 0 0 1 8.9 5.17 4.67 4.67 0 0 1 12.64 4a4.86 4.86 0 0 1 4.08 4.9v4.5a2 2 0 0 0 .58 1.42L18.49 16z"/>
    </symbol>

    <symbol viewBox="0 0 24 24" id="cross">
      <path d="M13.41 12l4.3-4.29a1 1 0 1 0-1.42-1.42L12 10.59l-4.29-4.3a1 1 0 0 0-1.42 1.42l4.3 4.29-4.3 4.29a1 1 0 0 0 0 1.42 1 1 0 0 0 1.42 0l4.29-4.3 4.29 4.3a1 1 0 0 0 1.42 0 1 1 0 0 0 0-1.42z"/>
    </symbol>
      
    <symbol viewBox="0 0 24 24" id="arrowDown">
      <path d="M12 16a1 1 0 0 1-.64-.23l-6-5a1 1 0 1 1 1.28-1.54L12 13.71l5.36-4.32a1 1 0 0 1 1.41.15 1 1 0 0 1-.14 1.46l-6 4.83A1 1 0 0 1 12 16z"/>
    </symbol>

    <symbol viewBox="0 0 24 24" id="check">
      <path d="M9.86 18a1 1 0 0 1-.73-.32l-4.86-5.17a1 1 0 1 1 1.46-1.37l4.12 4.39 8.41-9.2a1 1 0 1 1 1.48 1.34l-9.14 10a1 1 0 0 1-.73.33z"/>
    </symbol>

    <symbol viewBox="0 0 24 24" id="done">
      <path d="M16.62 6.21a1 1 0 0 0-1.41.17l-7 9-3.43-4.18a1 1 0 1 0-1.56 1.25l4.17 5.18a1 1 0 0 0 .78.37 1 1 0 0 0 .83-.38l7.83-10a1 1 0 0 0-.21-1.41z"/><path d="M21.62 6.21a1 1 0 0 0-1.41.17l-7 9-.61-.75-1.26 1.62 1.1 1.37a1 1 0 0 0 .78.37 1 1 0 0 0 .78-.38l7.83-10a1 1 0 0 0-.21-1.4z"/><path d="M8.71 13.06L10 11.44l-.2-.24a1 1 0 0 0-1.43-.2 1 1 0 0 0-.15 1.41z"/>
    </symbol>

    <symbol viewBox="0 0 24 24" id="star">
      <path d="M17.56 21a1 1 0 0 1-.46-.11L12 18.22l-5.1 2.67a1 1 0 0 1-1.45-1.06l1-5.63-4.12-4a1 1 0 0 1-.25-1 1 1 0 0 1 .81-.68l5.7-.83 2.51-5.13a1 1 0 0 1 1.8 0l2.54 5.12 5.7.83a1 1 0 0 1 .81.68 1 1 0 0 1-.25 1l-4.12 4 1 5.63a1 1 0 0 1-.4 1 1 1 0 0 1-.62.18z"/>
    </symbol>

    <symbol viewBox="0 0 24 24" id="starOutlined">
      <path d="M17.56 21a1 1 0 0 1-.46-.11L12 18.22l-5.1 2.67a1 1 0 0 1-1.45-1.06l1-5.63-4.12-4a1 1 0 0 1-.25-1 1 1 0 0 1 .81-.68l5.7-.83 2.51-5.13a1 1 0 0 1 1.8 0l2.54 5.12 5.7.83a1 1 0 0 1 .81.68 1 1 0 0 1-.25 1l-4.12 4 1 5.63a1 1 0 0 1-.4 1 1 1 0 0 1-.62.18zM12 16.1a.92.92 0 0 1 .46.11l3.77 2-.72-4.21a1 1 0 0 1 .29-.89l3-2.93-4.2-.62a1 1 0 0 1-.71-.56L12 5.25 10.11 9a1 1 0 0 1-.75.54l-4.2.62 3 2.93a1 1 0 0 1 .29.89l-.72 4.16 3.77-2a.92.92 0 0 1 .5-.04z"/>
    </symbol>

    <symbol viewBox="0 0 24 24" id="heart">
      <path d="M12 21a1 1 0 0 1-.71-.29l-7.77-7.78a5.26 5.26 0 0 1 0-7.4 5.24 5.24 0 0 1 7.4 0L12 6.61l1.08-1.08a5.24 5.24 0 0 1 7.4 0 5.26 5.26 0 0 1 0 7.4l-7.77 7.78A1 1 0 0 1 12 21z"/>
    </symbol>

    <symbol viewBox="0 0 24 24" id="heartOutlined">
      <path d="M12 21a1 1 0 0 1-.71-.29l-7.77-7.78a5.26 5.26 0 0 1 0-7.4 5.24 5.24 0 0 1 7.4 0L12 6.61l1.08-1.08a5.24 5.24 0 0 1 7.4 0 5.26 5.26 0 0 1 0 7.4l-7.77 7.78A1 1 0 0 1 12 21zM7.22 6a3.2 3.2 0 0 0-2.28.94 3.24 3.24 0 0 0 0 4.57L12 18.58l7.06-7.07a3.24 3.24 0 0 0 0-4.57 3.32 3.32 0 0 0-4.56 0l-1.79 1.8a1 1 0 0 1-1.42 0L9.5 6.94A3.2 3.2 0 0 0 7.22 6z"/>
    </symbol>

    <symbol viewBox="0 0 24 24" id="bookmark">
      <path d="M6 21a1 1 0 0 1-.49-.13A1 1 0 0 1 5 20V5.33A2.28 2.28 0 0 1 7.2 3h9.6A2.28 2.28 0 0 1 19 5.33V20a1 1 0 0 1-.5.86 1 1 0 0 1-1 0l-5.67-3.21-5.33 3.2A1 1 0 0 1 6 21z"/>
    </symbol>

    <symbol viewBox="0 0 24 24" id="bookmarkOutlined">
      <path d="M6.09 21.06a1 1 0 0 1-1-1L4.94 5.4a2.26 2.26 0 0 1 2.18-2.35L16.71 3a2.27 2.27 0 0 1 2.23 2.31l.14 14.66a1 1 0 0 1-.49.87 1 1 0 0 1-1 0l-5.7-3.16-5.29 3.23a1.2 1.2 0 0 1-.51.15zm5.76-5.55a1.11 1.11 0 0 1 .5.12l4.71 2.61-.12-12.95c0-.2-.13-.34-.21-.33l-9.6.09c-.08 0-.19.13-.19.33l.12 12.9 4.28-2.63a1.06 1.06 0 0 1 .51-.14z"/>
    </symbol>

    <symbol viewBox="0 0 24 24" id="more">
      <circle cx="12" cy="12" r="2"/><circle cx="12" cy="5" r="2"/><circle cx="12" cy="19" r="2"/>
    </symbol>
    
    <symbol viewBox="0 0 24 24" id="chevronDown">
      <path 
      d="M3.13523 6.15803C3.3241 5.95657 3.64052 5.94637 3.84197 6.13523L7.5 9.56464L11.158 6.13523C11.3595 5.94637 11.6759 5.95657 11.8648 6.15803C12.0536 6.35949 12.0434 6.67591 11.842 6.86477L7.84197 10.6148C7.64964 10.7951 7.35036 10.7951 7.15803 10.6148L3.15803 6.86477C2.95657 6.67591 2.94637 6.35949 3.13523 6.15803Z"/>
    </symbol>

    <symbol viewBox="0 0 24 24" id="github">
      <path d="M12 1A10.89 10.89 0 0 0 1 11.77 10.79 10.79 0 0 0 8.52 22c.55.1.75-.23.75-.52v-1.83c-3.06.65-3.71-1.44-3.71-1.44a2.86 2.86 0 0 0-1.22-1.58c-1-.66.08-.65.08-.65a2.31 2.31 0 0 1 1.68 1.11 2.37 2.37 0 0 0 3.2.89 2.33 2.33 0 0 1 .7-1.44c-2.44-.27-5-1.19-5-5.32a4.15 4.15 0 0 1 1.11-2.91 3.78 3.78 0 0 1 .11-2.84s.93-.29 3 1.1a10.68 10.68 0 0 1 5.5 0c2.1-1.39 3-1.1 3-1.1a3.78 3.78 0 0 1 .11 2.84A4.15 4.15 0 0 1 19 11.2c0 4.14-2.58 5.05-5 5.32a2.5 2.5 0 0 1 .75 2v2.95c0 .35.2.63.75.52A10.8 10.8 0 0 0 23 11.77 10.89 10.89 0 0 0 12 1" />
    </symbol>

  </defs>
</svg>